<!DOCTYPE svg PUBLIC "-//W3C//DTD SVG 1.1//EN" "http://www.w3.org/Graphics/SVG/1.1/DTD/svg11.dtd">

<!-- Uploaded to: SVG Repo, www.svgrepo.com, Transformed by: SVG Repo Mixer Tools -->
<svg width="15px" height="20px" viewBox="0 0 30 30" fill="none" xmlns="http://www.w3.org/2000/svg" stroke="#e6e6e6">

<g id="SVGRepo_bgCarrier" stroke-width="0"/>

<g id="SVGRepo_tracerCarrier" stroke-linecap="round" stroke-linejoin="round"/>

<g id="SVGRepo_iconCarrier">
  <g id="SVGRepo_iconCarrier">
  <!-- Column 1 (x = 5) -->
  <path d="M5 6C5.55228 6 6 5.55228 6 5C6 4.44772 5.55228 4 5 4C4.44772 4 4 4.44772 4 5C4 5.55228 4.44772 6 5 6Z" stroke="#e6e6e6" stroke-width="2" stroke-linecap="round" stroke-linejoin="round"/>
  <path d="M5 13C5.55228 13 6 12.5523 6 12C6 11.4477 5.55228 11 5 11C4.44772 11 4 11.4477 4 12C4 12.5523 4.44772 13 5 13Z" stroke="#e6e6e6" stroke-width="2" stroke-linecap="round" stroke-linejoin="round"/>
  <path d="M5 20C5.55228 20 6 19.5523 6 19C6 18.4477 5.55228 18 5 18C4.44772 18 4 18.4477 4 19C4 19.5523 4.44772 20 5 20Z" stroke="#e6e6e6" stroke-width="2" stroke-linecap="round" stroke-linejoin="round"/>
  <path d="M5 27C5.55228 27 6 26.5523 6 26C6 25.4477 5.55228 25 5 25C4.44772 25 4 25.4477 4 26C4 26.5523 4.44772 27 5 27Z" stroke="#e6e6e6" stroke-width="2" stroke-linecap="round" stroke-linejoin="round"/>

  <!-- Column 2 (x = 12) -->
  <!-- <path d="M12 6C12.5523 6 13 5.55228 13 5C13 4.44772 12.5523 4 12 4C11.4477 4 11 4.44772 11 5C11 5.55228 11.4477 6 12 6Z" stroke="#00FFFFFF" stroke-width="2" stroke-linecap="round" stroke-linejoin="round"/> -->
  <path d="M12 13C12.5523 13 13 12.5523 13 12C13 11.4477 12.5523 11 12 11C11.4477 11 11 11.4477 11 12C11 12.5523 11.4477 13 12 13Z" stroke="#e6e6e6" stroke-width="2" stroke-linecap="round" stroke-linejoin="round"/>
  <!-- <path d="M12 20C12.5523 20 13 19.5523 13 19C13 18.4477 12.5523 18 12 18C11.4477 18 11 18.4477 11 19C11 19.5523 11.4477 20 12 20Z" stroke="#00FFFFFF" stroke-width="2" stroke-linecap="round" stroke-linejoin="round"/> -->
  <!-- <path d="M12 27C12.5523 27 13 26.5523 13 26C13 25.4477 12.5523 25 12 25C11.4477 25 11 25.4477 11 26C11 26.5523 11.4477 27 12 27Z" stroke="#00FFFFFF" stroke-width="2" stroke-linecap="round" stroke-linejoin="round"/> -->

  <!-- Column 3 (x = 19) -->
  <path d="M19 6C19.5523 6 20 5.55228 20 5C20 4.44772 19.5523 4 19 4C18.4477 4 18 4.44772 18 5C18 5.5523 18.4477 6 19 6Z" stroke="#e6e6e6" stroke-width="2" stroke-linecap="round" stroke-linejoin="round"/>
  <path d="M19 13C19.5523 13 20 12.5523 20 12C20 11.4477 19.5523 11 19 11C18.4477 11 18 11.4477 18 12C18 12.5523 18.4477 13 19 13Z" stroke="#e6e6e6" stroke-width="2" stroke-linecap="round" stroke-linejoin="round"/>
  <path d="M19 20C19.5523 20 20 19.5523 20 19C20 18.4477 19.5523 18 19 18C18.4477 18 18 18.4477 18 19C18 19.5523 18.4477 20 19 20Z" stroke="#e6e6e6" stroke-width="2" stroke-linecap="round" stroke-linejoin="round"/>
  <path d="M19 27C19.5523 27 20 26.5523 20 26C20 25.4477 19.5523 25 19 25C18.4477 25 18 25.4477 18 26C18 26.5523 18.4477 27 19 27Z" stroke="#e6e6e6" stroke-width="2" stroke-linecap="round" stroke-linejoin="round"/>
</g>

</g>


</svg>